<svg width="104" height="23" viewBox="0 0 104 23" fill="none" xmlns="http://www.w3.org/2000/svg">
<path d="M0 22.2506V0H9.19141C10.8573 0 12.2951 0.325937 13.5046 0.977811C14.7215 1.62244 15.6594 2.5242 16.3186 3.68308C16.9777 4.83473 17.3072 6.17469 17.3072 7.70297C17.3072 9.23849 16.9704 10.5821 16.2968 11.7337C15.6305 12.8781 14.678 13.7654 13.4395 14.3955C12.2009 15.0257 10.7306 15.3407 9.02844 15.3407H3.35715V11.1036H8.0289C8.84012 11.1036 9.51735 10.9623 10.0606 10.6799C10.611 10.3974 11.0275 10.0026 11.31 9.49562C11.5925 8.98136 11.7337 8.38381 11.7337 7.70297C11.7337 7.01488 11.5925 6.42095 11.31 5.92118C11.0275 5.41417 10.611 5.02305 10.0606 4.74781C9.5101 4.47258 8.83288 4.33496 8.0289 4.33496H5.37795V22.2506H0Z" fill="white"/>
<path d="M19.0403 0H25.7003L31.3499 13.7763H31.6106L37.2602 0H43.9202V22.2506H38.6835V8.583H38.4988L33.1534 22.1094H29.8071L24.4618 8.50695H24.2771V22.2506H19.0403V0Z" fill="white"/>
<path d="M53.8859 22.5874C52.2707 22.5874 50.88 22.2216 49.7139 21.4901C48.555 20.7513 47.6641 19.7337 47.0412 18.4371C46.4183 17.1406 46.1069 15.6558 46.1069 13.9827C46.1069 12.2878 46.4256 10.7921 47.063 9.49562C47.7003 8.19187 48.5985 7.17423 49.7574 6.44268C50.9163 5.71113 52.2816 5.34536 53.8533 5.34536C55.1208 5.34536 56.2507 5.58076 57.243 6.05156C58.2353 6.51511 59.0357 7.16698 59.6441 8.00718C60.2598 8.84737 60.6255 9.8288 60.7414 10.9515H57.5798C57.406 10.1692 57.0076 9.49562 56.3847 8.93066C55.7691 8.36571 54.9434 8.08323 53.9076 8.08323C53.0022 8.08323 52.2091 8.32225 51.5283 8.80029C50.8547 9.27109 50.3296 9.94469 49.9529 10.8211C49.5763 11.6903 49.388 12.7188 49.388 13.9066C49.388 15.1235 49.5727 16.1737 49.9421 17.0574C50.3115 17.941 50.833 18.6255 51.5066 19.1108C52.1874 19.596 52.9878 19.8387 53.9076 19.8387C54.5233 19.8387 55.081 19.7264 55.5808 19.5019C56.0878 19.2701 56.5115 18.9405 56.8519 18.5132C57.1996 18.0859 57.4422 17.5716 57.5798 16.9704H60.7414C60.6255 18.0496 60.2743 19.013 59.6876 19.8604C59.1009 20.7078 58.315 21.3742 57.33 21.8595C56.3521 22.3448 55.2041 22.5874 53.8859 22.5874Z" fill="white"/>
<path d="M68.154 22.62C67.0965 22.62 66.1404 22.4244 65.2858 22.0333C64.4311 21.6349 63.7538 21.0591 63.2541 20.3059C62.7616 19.5526 62.5153 18.6291 62.5153 17.5354C62.5153 16.5938 62.6964 15.8188 63.0585 15.2104C63.4207 14.602 63.9096 14.1203 64.5252 13.7654C65.1409 13.4105 65.829 13.1425 66.5895 12.9614C67.35 12.7803 68.125 12.6427 68.9145 12.5486C69.914 12.4327 70.7253 12.3385 71.3482 12.2661C71.9711 12.1864 72.4238 12.0597 72.7062 11.8858C72.9887 11.712 73.13 11.4295 73.13 11.0384V10.9623C73.13 10.0135 72.862 9.27833 72.326 8.75683C71.7972 8.23533 71.0077 7.97458 69.9575 7.97458C68.8638 7.97458 68.0019 8.21722 67.3717 8.70251C66.7488 9.18055 66.3179 9.71291 66.0789 10.2996L63.0259 9.60427C63.3881 8.59024 63.9168 7.77178 64.6121 7.14888C65.3147 6.51873 66.1223 6.06242 67.0349 5.77994C67.9476 5.49022 68.9073 5.34536 69.914 5.34536C70.5804 5.34536 71.2866 5.42503 72.0326 5.58438C72.7859 5.73649 73.4885 6.01896 74.1404 6.43182C74.7995 6.84467 75.3391 7.43498 75.7592 8.20274C76.1793 8.96326 76.3893 9.95193 76.3893 11.1688V22.2506H73.2169V19.969H73.0865C72.8764 20.3891 72.5614 20.802 72.1413 21.2076C71.7212 21.6132 71.1816 21.95 70.5225 22.218C69.8633 22.486 69.0739 22.62 68.154 22.62ZM68.8602 20.0125C69.7583 20.0125 70.5261 19.8351 71.1635 19.4801C71.8081 19.1252 72.297 18.6617 72.6302 18.0895C72.9706 17.51 73.1408 16.8908 73.1408 16.2316V14.0805C73.0249 14.1964 72.8004 14.305 72.4672 14.4064C72.1413 14.5006 71.7683 14.5839 71.3482 14.6563C70.9281 14.7215 70.5188 14.783 70.1205 14.841C69.7221 14.8917 69.3889 14.9351 69.1209 14.9714C68.4908 15.051 67.915 15.185 67.3935 15.3733C66.8792 15.5617 66.4664 15.8333 66.1549 16.1882C65.8507 16.5359 65.6986 16.9994 65.6986 17.5788C65.6986 18.3828 65.9956 18.9912 66.5895 19.4041C67.1834 19.8097 67.9403 20.0125 68.8602 20.0125Z" fill="white"/>
<path d="M92.3034 9.63686L89.3591 10.1584C89.236 9.78172 89.0404 9.42319 88.7724 9.08277C88.5117 8.74234 88.1568 8.46349 87.7077 8.2462C87.2586 8.0289 86.6973 7.92026 86.0237 7.92026C85.1038 7.92026 84.3361 8.12669 83.7204 8.53954C83.1047 8.94515 82.7969 9.47027 82.7969 10.1149C82.7969 10.6726 83.0033 11.1217 83.4162 11.4621C83.829 11.8025 84.4954 12.0814 85.4153 12.2987L88.0662 12.9071C89.6017 13.262 90.7461 13.8088 91.4994 14.5476C92.2527 15.2864 92.6293 16.2461 92.6293 17.4267C92.6293 18.4263 92.3396 19.3172 91.7602 20.0994C91.188 20.8744 90.3876 21.4828 89.3591 21.9247C88.3378 22.3665 87.1536 22.5874 85.8064 22.5874C83.9377 22.5874 82.413 22.189 81.2324 21.3923C80.0518 20.5883 79.3275 19.4475 79.0595 17.97L82.1994 17.4919C82.3949 18.3104 82.7969 18.9297 83.4053 19.3498C84.0137 19.7626 84.8068 19.969 85.7847 19.969C86.8494 19.969 87.7004 19.7481 88.3378 19.3063C88.9752 18.8572 89.2939 18.3104 89.2939 17.6658C89.2939 17.1443 89.0983 16.7061 88.7072 16.3512C88.3233 15.9962 87.733 15.7283 86.9363 15.5472L84.1115 14.9279C82.5543 14.573 81.4026 14.008 80.6566 13.233C79.9178 12.458 79.5484 11.4766 79.5484 10.2887C79.5484 9.30368 79.8236 8.44176 80.3741 7.70297C80.9246 6.96418 81.6851 6.38836 82.6557 5.9755C83.6262 5.55541 84.738 5.34536 85.9911 5.34536C87.7946 5.34536 89.2142 5.73649 90.25 6.51873C91.2857 7.29374 91.9702 8.33311 92.3034 9.63686Z" fill="white"/>
<path d="M103.073 5.56265V8.17015H93.9577V5.56265H103.073ZM96.4023 1.5645H99.6508V17.3507C99.6508 17.9808 99.7449 18.4553 99.9332 18.7739C100.122 19.0854 100.364 19.2991 100.661 19.415C100.965 19.5236 101.295 19.5779 101.65 19.5779C101.911 19.5779 102.139 19.5598 102.334 19.5236C102.53 19.4874 102.682 19.4584 102.791 19.4367L103.377 22.1202C103.189 22.1927 102.921 22.2651 102.573 22.3375C102.226 22.4172 101.791 22.4607 101.27 22.4679C100.415 22.4824 99.6182 22.3303 98.8794 22.0116C98.1406 21.6929 97.543 21.2004 97.0867 20.534C96.6304 19.8676 96.4023 19.0311 96.4023 18.0243V1.5645Z" fill="white"/>
</svg>
