<svg width="122" height="27" viewBox="0 0 122 27" fill="none" xmlns="http://www.w3.org/2000/svg">
<path d="M0 26.1818V0H10.8153C12.7756 0 14.4673 0.383523 15.8906 1.15057C17.3224 1.90909 18.4261 2.97017 19.2017 4.33381C19.9773 5.68892 20.3651 7.26563 20.3651 9.06392C20.3651 10.8707 19.9687 12.4517 19.1761 13.8068C18.392 15.1534 17.2713 16.1974 15.8139 16.9389C14.3565 17.6804 12.6264 18.0511 10.6236 18.0511H3.95028V13.0653H9.44744C10.402 13.0653 11.1989 12.8991 11.8381 12.5668C12.4858 12.2344 12.9759 11.7699 13.3082 11.1733C13.6406 10.5682 13.8068 9.86506 13.8068 9.06392C13.8068 8.25426 13.6406 7.5554 13.3082 6.96733C12.9759 6.37074 12.4858 5.91051 11.8381 5.58665C11.1903 5.26279 10.3935 5.10085 9.44744 5.10085H6.32813V26.1818H0Z" fill="black"/>
<path d="M22.4044 0H30.241L36.8888 16.2102H37.1956L43.8433 0H51.6799V26.1818H45.518V10.0994H45.3007L39.0109 26.0156H35.0734L28.7836 10.0099H28.5663V26.1818H22.4044V0Z" fill="black"/>
<path d="M63.4064 26.5781C61.5058 26.5781 59.8695 26.1477 58.4973 25.2869C57.1337 24.4176 56.0854 23.2202 55.3524 21.6946C54.6195 20.169 54.253 18.4219 54.253 16.4531C54.253 14.4588 54.628 12.6989 55.378 11.1733C56.128 9.6392 57.1848 8.44176 58.5485 7.58097C59.9121 6.72017 61.5186 6.28977 63.3681 6.28977C64.8595 6.28977 66.1891 6.56676 67.3567 7.12074C68.5243 7.66619 69.4661 8.43324 70.182 9.42188C70.9064 10.4105 71.3368 11.5653 71.4732 12.8864H67.753C67.5485 11.9659 67.0797 11.1733 66.3467 10.5085C65.6223 9.84375 64.6507 9.51136 63.432 9.51136C62.3666 9.51136 61.4334 9.79261 60.6323 10.3551C59.8396 10.9091 59.2217 11.7017 58.7786 12.733C58.3354 13.7557 58.1138 14.9659 58.1138 16.3636C58.1138 17.7955 58.3311 19.0313 58.7658 20.071C59.2004 21.1108 59.8141 21.9162 60.6067 22.4872C61.4078 23.0582 62.3496 23.3438 63.432 23.3438C64.1564 23.3438 64.8127 23.2116 65.4007 22.9474C65.9973 22.6747 66.4959 22.2869 66.8965 21.7841C67.3056 21.2813 67.5911 20.6761 67.753 19.9688H71.4732C71.3368 21.2386 70.9234 22.3722 70.2331 23.3693C69.5428 24.3665 68.6181 25.1506 67.459 25.7216C66.3084 26.2926 64.9575 26.5781 63.4064 26.5781Z" fill="black"/>
<path d="M80.1954 26.6165C78.9511 26.6165 77.8261 26.3864 76.8204 25.9261C75.8147 25.4574 75.0178 24.7798 74.4297 23.8935C73.8502 23.0071 73.5604 21.9205 73.5604 20.6335C73.5604 19.5256 73.7735 18.6136 74.1996 17.8977C74.6258 17.1818 75.2011 16.6151 75.9255 16.1974C76.6499 15.7798 77.4596 15.4645 78.3545 15.2514C79.2493 15.0384 80.1613 14.8764 81.0903 14.7656C82.2664 14.6293 83.2209 14.5185 83.9539 14.4332C84.6869 14.3395 85.2195 14.1903 85.5519 13.9858C85.8843 13.7812 86.0505 13.4489 86.0505 12.9886V12.8991C86.0505 11.7827 85.7351 10.9176 85.1045 10.304C84.4823 9.69034 83.5533 9.38352 82.3175 9.38352C81.0306 9.38352 80.0164 9.66903 79.2749 10.2401C78.542 10.8026 78.0349 11.429 77.7536 12.1193L74.1613 11.3011C74.5874 10.108 75.2096 9.14489 76.0278 8.41193C76.8545 7.67045 77.8047 7.13352 78.8786 6.80114C79.9525 6.46023 81.0817 6.28977 82.2664 6.28977C83.0505 6.28977 83.8815 6.38352 84.7593 6.57102C85.6457 6.75 86.4724 7.08239 87.2394 7.56818C88.015 8.05398 88.6499 8.74858 89.1442 9.65199C89.6386 10.5469 89.8857 11.7102 89.8857 13.142V26.1818H86.1528V23.4972H85.9994C85.7522 23.9915 85.3814 24.4773 84.8871 24.9545C84.3928 25.4318 83.7579 25.8281 82.9823 26.1435C82.2067 26.4588 81.2778 26.6165 80.1954 26.6165ZM81.0263 23.5483C82.0832 23.5483 82.9866 23.3395 83.7366 22.9219C84.4951 22.5043 85.0704 21.9588 85.4624 21.2855C85.863 20.6037 86.0633 19.875 86.0633 19.0994V16.5682C85.9269 16.7045 85.6627 16.8324 85.2707 16.9517C84.8871 17.0625 84.4482 17.1605 83.9539 17.2457C83.4596 17.3224 82.978 17.3949 82.5093 17.4631C82.0405 17.5227 81.6485 17.5739 81.3332 17.6165C80.5917 17.7102 79.9141 17.8679 79.3005 18.0895C78.6954 18.3111 78.2096 18.6307 77.8431 19.0483C77.4851 19.4574 77.3062 20.0028 77.3062 20.6847C77.3062 21.6307 77.6556 22.3466 78.3545 22.8324C79.0533 23.3097 79.944 23.5483 81.0263 23.5483Z" fill="black"/>
<path d="M108.611 11.3395L105.147 11.9531C105.002 11.5099 104.772 11.0881 104.457 10.6875C104.15 10.2869 103.732 9.95881 103.204 9.70312C102.675 9.44744 102.015 9.3196 101.222 9.3196C100.14 9.3196 99.2365 9.5625 98.512 10.0483C97.7876 10.5256 97.4254 11.1435 97.4254 11.902C97.4254 12.5582 97.6683 13.0866 98.1541 13.4872C98.6399 13.8878 99.424 14.2159 100.506 14.4716L103.626 15.1875C105.432 15.6051 106.779 16.2486 107.665 17.1179C108.552 17.9872 108.995 19.1165 108.995 20.5057C108.995 21.6818 108.654 22.7301 107.972 23.6506C107.299 24.5625 106.357 25.2784 105.147 25.7983C103.945 26.3182 102.552 26.5781 100.967 26.5781C98.7677 26.5781 96.9737 26.1094 95.5845 25.1719C94.1953 24.2259 93.343 22.8835 93.0277 21.1449L96.7223 20.5824C96.9524 21.5455 97.4254 22.2741 98.1413 22.7685C98.8572 23.2543 99.7904 23.4972 100.941 23.4972C102.194 23.4972 103.195 23.2372 103.945 22.7173C104.695 22.1889 105.07 21.5455 105.07 20.7869C105.07 20.1733 104.84 19.6577 104.38 19.2401C103.928 18.8224 103.234 18.5071 102.296 18.294L98.9723 17.5653C97.1399 17.1477 95.7848 16.483 94.9069 15.571C94.0376 14.6591 93.6029 13.5043 93.6029 12.1065C93.6029 10.9474 93.9268 9.93324 94.5745 9.06392C95.2223 8.1946 96.1171 7.51705 97.2592 7.03125C98.4012 6.53693 99.7095 6.28977 101.184 6.28977C103.306 6.28977 104.977 6.75 106.195 7.67045C107.414 8.58239 108.219 9.8054 108.611 11.3395Z" fill="black"/>
<path d="M121.284 6.54545V9.61364H110.558V6.54545H121.284ZM113.435 1.84091H117.257V20.4162C117.257 21.1577 117.368 21.7159 117.589 22.0909C117.811 22.4574 118.096 22.7088 118.446 22.8452C118.804 22.973 119.192 23.0369 119.609 23.0369C119.916 23.0369 120.185 23.0156 120.415 22.973C120.645 22.9304 120.824 22.8963 120.952 22.8707L121.642 26.0284C121.42 26.1136 121.105 26.1989 120.696 26.2841C120.287 26.3778 119.775 26.429 119.162 26.4375C118.156 26.4545 117.219 26.2756 116.349 25.9006C115.48 25.5256 114.777 24.946 114.24 24.1619C113.703 23.3778 113.435 22.3935 113.435 21.2088V1.84091Z" fill="black"/>
</svg>
